<?xml version="1.0" encoding="UTF-8"?>
<svg width="60px" height="60px" viewBox="0 0 60 60" version="1.1" xmlns="http://www.w3.org/2000/svg" xmlns:xlink="http://www.w3.org/1999/xlink">
    <!-- Generator: Sketch 60.1 (88133) - https://sketch.com -->
    <title>icon3</title>
    <desc>Created with Sketch.</desc>
    <g id="Page-2" stroke="none" stroke-width="1" fill="none" fill-rule="evenodd">
        <g id="iPhone-11" transform="translate(-178.000000, -3587.000000)" fill-rule="nonzero">
            <g id="Group-2-Copy-2" transform="translate(34.000000, 3256.000000)">
                <g id="icon3" transform="translate(144.000000, 331.000000)">
                    <path d="M5,60 L55,60 C57.7569998,60 60,57.7569998 60,55 L60,54 L59.9930002,54 C59.9930002,53.882 59.979,53.763 59.937,53.649 L54,37.818 L54,5 C54,2.243 51.757,0 49,0 L11,0 C8.24300002,0 6,2.243 6,5 L6,37.818 L0.063,53.649 C0.021,53.763 0.00699999998,53.882 0.00699999998,54 L0,54 L0,55 C0,57.7569998 2.243,60 5,60 Z M55,58 L5,58 C3.346,58 2,56.654 2,55 L21.586,55 L22.293,55.707 C22.48,55.895 22.735,56 23,56 L37,56 C37.265,56 37.52,55.895 37.707,55.707 L38.414,55 L58,55 C58,56.654 56.654,58 55,58 Z M11,2 L49,2 C50.654,2 52,3.346 52,5 L52,37 L8.00000002,37 L8.00000002,5 C8.00000002,3.346 9.34599998,2 11,2 Z M7.69299998,39 L52.307,39 L57.557,53 L38,53 C37.735,53 37.48,53.105 37.293,53.293 L36.586,54 L23.414,54 L22.707,53.293 C22.52,53.105 22.265,53 22,53 L2.443,53 L7.69299998,39 Z" id="Shape" fill="#E95959"></path>
                    <rect id="Rectangle" fill="#E95959" x="6.80412371" y="48.8659794" width="3.71134021" height="1.8556701"></rect>
                    <rect id="Rectangle" fill="#E95959" x="14.2268041" y="48.8659794" width="3.71134021" height="1.8556701"></rect>
                    <rect id="Rectangle" fill="#E95959" x="21.0309278" y="48.8659794" width="17.9381443" height="1.8556701"></rect>
                    <rect id="Rectangle" fill="#E95959" x="42.0618557" y="48.8659794" width="3.71134021" height="1.8556701"></rect>
                    <rect id="Rectangle" fill="#E95959" x="49.4845361" y="48.8659794" width="3.71134021" height="1.8556701"></rect>
                    <rect id="Rectangle" fill="#E95959" x="8.04123711" y="45.1546392" width="6.18556701" height="1.8556701"></rect>
                    <rect id="Rectangle" fill="#E95959" x="17.3195876" y="45.1546392" width="3.71134021" height="1.8556701"></rect>
                    <rect id="Rectangle" fill="#E95959" x="24.1237113" y="45.1546392" width="3.71134021" height="1.8556701"></rect>
                    <rect id="Rectangle" fill="#E95959" x="30.9278351" y="45.1546392" width="3.71134021" height="1.8556701"></rect>
                    <rect id="Rectangle" fill="#E95959" x="38.3505155" y="45.1546392" width="3.71134021" height="1.8556701"></rect>
                    <rect id="Rectangle" fill="#E95959" x="45.1546392" y="45.1546392" width="6.80412371" height="1.8556701"></rect>
                    <rect id="Rectangle" fill="#E95959" x="14.2268041" y="40.8247423" width="1.8556701" height="1.8556701"></rect>
                    <rect id="Rectangle" fill="#E95959" x="10.5154639" y="40.8247423" width="1.8556701" height="1.8556701"></rect>
                    <rect id="Rectangle" fill="#E95959" x="19.1752577" y="40.8247423" width="3.71134021" height="1.8556701"></rect>
                    <rect id="Rectangle" fill="#E95959" x="25.9793814" y="40.8247423" width="3.71134021" height="1.8556701"></rect>
                    <rect id="Rectangle" fill="#E95959" x="33.4020619" y="40.8247423" width="3.71134021" height="1.8556701"></rect>
                    <rect id="Rectangle" fill="#E95959" x="40.2061856" y="40.8247423" width="3.71134021" height="1.8556701"></rect>
                    <rect id="Rectangle" fill="#E95959" x="47.0103093" y="40.8247423" width="3.71134021" height="1.8556701"></rect>
                    <path d="M10.9020619,34.6391753 L49.0979381,34.6391753 C49.6527835,34.6391753 50.1030928,34.1922181 50.1030928,33.6415031 L50.1030928,4.70901231 C50.1030928,4.15829731 49.6527835,3.71134021 49.0979381,3.71134021 L10.9020619,3.71134021 C10.3472165,3.71134021 9.89690722,4.15829731 9.89690722,4.70901231 L9.89690722,33.6415031 C9.89690722,34.1922181 10.3472165,34.6391753 10.9020619,34.6391753 Z M11.9072165,5.7066844 L48.0927835,5.7066844 L48.0927835,32.643831 L11.9072165,32.643831 L11.9072165,5.7066844 Z" id="Shape" fill="#E95959"></path>
                    <path d="M17.2560532,8.04123711 L14.4965459,11.0447495 C14.1368902,11.4362074 14.1368902,12.0689473 14.4965459,12.4604051 L17.2560532,15.4639175 L18.556701,14.048262 L16.4475176,11.7525773 L18.556701,9.45689268 L17.2560532,8.04123711 Z" id="Path" fill="#4BB5F0"></path>
                    <path d="M28.5171426,8.04123711 L27.2164948,9.45689268 L29.3256783,11.7525773 L27.2164948,14.048262 L28.5171426,15.4639175 L31.2766499,12.4604051 C31.6363057,12.0689473 31.6363057,11.4362074 31.2766499,11.0447495 L28.5171426,8.04123711 Z" id="Path" fill="#4BB5F0"></path>
                    <path d="M30.245744,22.2680412 L27.4862367,25.2715537 C27.1265809,25.6630115 27.1265809,26.2957514 27.4862367,26.6872092 L30.245744,29.6907216 L31.5463918,28.2750661 L29.4372084,25.9793815 L31.5463918,23.6836968 L30.245744,22.2680412 Z" id="Path" fill="#4BB5F0"></path>
                    <path d="M42.12539,22.2680412 L40.8247423,23.6836968 L42.9339257,25.9793815 L40.8247423,28.2750661 L42.12539,29.6907216 L44.8848973,26.6872092 C45.2445531,26.2957514 45.2445531,25.6630115 44.8848973,25.2715537 L42.12539,22.2680412 Z" id="Path" fill="#4BB5F0"></path>
                    <polygon id="Rectangle" fill="#4BB5F0" transform="translate(35.498700, 26.000600) rotate(-63.434949) translate(-35.498700, -26.000600) " points="32.1448018 25.0006305 38.8525979 25.0006305 38.8525979 27.0005697 32.1448018 27.0005697"></polygon>
                    <rect id="Rectangle" fill="#4BB5F0" x="24.1237113" y="27.8350515" width="1.8556701" height="1.8556701"></rect>
                    <rect id="Rectangle" fill="#4BB5F0" x="19.7938144" y="27.8350515" width="1.8556701" height="1.8556701"></rect>
                    <rect id="Rectangle" fill="#4BB5F0" x="16.0824742" y="27.8350515" width="1.8556701" height="1.8556701"></rect>
                    <path d="M37.9381443,12.9896907 L35.8762887,12.9896907 L35.8762887,14.9690722 L36.9072165,14.9690722 L36.9072165,17.9381443 L38.9690722,17.9381443 L38.9690722,13.9793815 C38.9690722,13.4330722 38.5072165,12.9896907 37.9381443,12.9896907 Z" id="Path" fill="#4BB5F0"></path>
                    <rect id="Rectangle" fill="#4BB5F0" x="35.8762887" y="9.27835052" width="1.8556701" height="1.8556701"></rect>
                </g>
            </g>
        </g>
    </g>
</svg>