
<svg width="60px" height="60px" viewBox="0 0 60 60" version="1.1" xmlns="http://www.w3.org/2000/svg" >
    <g id="Page-2" stroke="none" stroke-width="1" fill="none" fill-rule="evenodd">
        <g id="iPhone-11" transform="translate(-178.000000, -2919.000000)" fill-rule="nonzero">
            <g id="Group-2-Copy" transform="translate(33.000000, 2597.000000)">
                <g id="icon1" transform="translate(145.000000, 322.000000)">
                    <rect id="Rectangle" fill="#4BB5F0" x="24.742268" y="10.5154639" width="9.89690722" height="1.8556701"></rect>
                    <rect id="Rectangle" fill="#4BB5F0" x="24.742268" y="14.2268041" width="9.89690722" height="1.8556701"></rect>
                    <path d="M55.0515464,52 L55.0515464,44 C55.0515464,43.556 54.7579423,43.165 54.3300619,43.04 L31.0020618,36.25 L31.0020618,24 L38.0164949,24 C38.5706351,24 39.0185567,23.552 39.0185567,23 L39.0185567,7 C39.0185567,6.735 38.9133402,6.48 38.7249526,6.29300002 L32.7125814,0.293 C32.5251959,0.105 32.2706722,0 32.0041237,0 L21.9835051,0 C21.429365,0 20.9814433,0.448 20.9814433,1 L20.9814433,23 C20.9814433,23.552 21.429365,24 21.9835051,24 L28.9979382,24 L28.9979382,36.25 L5.66993814,43.04 C5.24205773,43.165 4.94845361,43.556 4.94845361,44 L4.94845361,52 C4.94845361,52.444 5.24205773,52.835 5.66993814,52.96 L29.7194227,59.9600002 C29.8116124,59.9870002 29.9048041,60 30,60 C30.0951959,60 30.1883877,59.9870002 30.2805773,59.9600002 L54.3300619,52.96 C54.7579423,52.835 55.0515464,52.444 55.0515464,52 Z M33.0061856,3.414 L35.5975175,6 L33.0061856,6 L33.0061856,3.414 Z M22.985567,2 L31.0020618,2 L31.0020618,7 C31.0020618,7.55199998 31.4499835,8 32.0041237,8 L37.014433,8 L37.014433,22 L22.985567,22 L22.985567,2 Z M28.9979382,38.333 L28.9979382,43.586 L26.7002103,41.293 L25.2832949,42.707 L29.2915423,46.707 C29.4869443,46.902 29.7434722,47 30,47 C30.2565278,47 30.5130557,46.902 30.7084578,46.707 L34.7167052,42.707 L33.2997897,41.293 L31.0020618,43.586 L31.0020618,38.333 L50.4711217,44 L30,49.958 L9.52887833,44 L28.9979382,38.333 Z M6.9525773,45.333 L28.9979382,51.75 L28.9979382,57.667 L6.9525773,51.25 L6.9525773,45.333 Z M31.0020618,57.667 L31.0020618,51.75 L53.0474227,45.333 L53.0474227,51.25 L31.0020618,57.667 Z" id="Shape" fill="#E95959"></path>
                    <rect id="Rectangle" fill="#4BB5F0" x="25.3608247" y="6.18556701" width="3.71134021" height="1.8556701"></rect>
                    <path d="M1.00142745,24.0735581 L8.01141962,24.0735581 C8.01141962,26.8390081 10.2576214,29.0888827 13.0185568,29.0888827 L16.0228392,29.0888827 C17.6792002,29.0888827 19.0271215,30.4390081 19.0271215,32.0980775 L19.0271215,33.6889384 L16.7308484,31.3889106 L15.31483,32.8072444 L19.3205398,36.8195041 C19.5158182,37.0151017 19.7721836,37.1134021 20.028549,37.1134021 C20.2849144,37.1134021 20.5412798,37.0151017 20.7365582,36.8195041 L24.742268,32.8072444 L23.3262496,31.3889106 L21.0299765,33.6889384 L21.0299765,32.0980775 C21.0299765,29.3326275 18.7837747,27.0827529 16.0228392,27.0827529 L13.0185568,27.0827529 C11.3621959,27.0827529 10.0142745,25.7326275 10.0142745,24.0735581 L17.0242667,24.0735581 C17.578056,24.0735581 18.0256941,23.624185 18.0256941,23.0704932 L18.0256941,7.02145443 C18.0256941,6.75564224 17.9205442,6.49986069 17.7322758,6.31228757 L11.7237111,0.293898022 C11.5364442,0.105321817 11.2820816,0 11.015702,0 L1.00142745,0 C0.44763807,0 0,0.449373084 0,1.00306492 L0,23.0704932 C0,23.624185 0.44763807,24.0735581 1.00142745,24.0735581 Z M12.0171294,3.42446364 L14.6068208,6.01838953 L12.0171294,6.01838953 L12.0171294,3.42446364 Z M2.0028549,2.00612984 L10.0142745,2.00612984 L10.0142745,7.02145443 C10.0142745,7.57514626 10.4619126,8.02451939 11.015702,8.02451939 L16.0228392,8.02451939 L16.0228392,22.0674282 L2.0028549,22.0674282 L2.0028549,2.00612984 Z" id="Shape" fill="#E95959"></path>
                    <rect id="Rectangle" fill="#4BB5F0" x="3.71134021" y="10.5154639" width="9.89690722" height="1.8556701"></rect>
                    <rect id="Rectangle" fill="#4BB5F0" x="3.71134021" y="14.2268041" width="9.89690722" height="1.8556701"></rect>
                    <rect id="Rectangle" fill="#4BB5F0" x="3.71134021" y="17.9381443" width="9.89690722" height="1.8556701"></rect>
                    <rect id="Rectangle" fill="#4BB5F0" x="4.32989691" y="6.18556701" width="3.71134021" height="1.8556701"></rect>
                    <path d="M60,23.0704932 L60,7.02145443 C60,6.75564224 59.8948501,6.49986069 59.7065816,6.31228757 L53.698017,0.293898022 C53.5107501,0.105321817 53.2563875,0 52.9900079,0 L42.9757333,0 C42.421944,0 41.9743059,0.449373084 41.9743059,1.00306492 L41.9743059,23.0704932 C41.9743059,23.624185 42.421944,24.0735581 42.9757333,24.0735581 L49.9857255,24.0735581 C49.9857255,25.7326275 48.6378041,27.0827529 46.9814432,27.0827529 L43.9771608,27.0827529 C41.2162253,27.0827529 38.9700235,29.3326275 38.9700235,32.0980775 L38.9700235,33.6889384 L36.6737504,31.3889106 L35.257732,32.8072444 L39.2634418,36.8195041 C39.4587202,37.0151017 39.7150856,37.1134021 39.971451,37.1134021 C40.2278164,37.1134021 40.4841818,37.0151017 40.6794602,36.8195041 L44.68517,32.8072444 L43.2691516,31.3889106 L40.9728785,33.6889384 L40.9728785,32.0980775 C40.9728785,30.4390081 42.3207998,29.0888827 43.9771608,29.0888827 L46.9814432,29.0888827 C49.7423786,29.0888827 51.9885804,26.8390081 51.9885804,24.0735581 L58.9985727,24.0735581 C59.5523619,24.0735581 60,23.624185 60,23.0704932 Z M53.9914353,3.42446364 L56.5811267,6.01838953 L53.9914353,6.01838953 L53.9914353,3.42446364 Z M43.9771608,22.0674282 L43.9771608,2.00612984 L51.9885804,2.00612984 L51.9885804,7.02145443 C51.9885804,7.57514626 52.4362184,8.02451939 52.9900079,8.02451939 L57.9971449,8.02451939 L57.9971449,22.0674282 L43.9771608,22.0674282 Z" id="Shape" fill="#E95959"></path>
                    <rect id="Rectangle" fill="#4BB5F0" x="46.3917526" y="10.5154639" width="9.89690722" height="1.8556701"></rect>
                    <rect id="Rectangle" fill="#4BB5F0" x="46.3917526" y="14.2268041" width="9.89690722" height="1.8556701"></rect>
                    <rect id="Rectangle" fill="#4BB5F0" x="46.3917526" y="17.9381443" width="9.89690722" height="1.8556701"></rect>
                    <rect id="Rectangle" fill="#4BB5F0" x="46.3917526" y="6.18556701" width="3.71134021" height="1.8556701"></rect>
                    <rect id="Rectangle" fill="#4BB5F0" x="25.3608247" y="17.9381443" width="1.8556701" height="1.8556701"></rect>
                    <rect id="Rectangle" fill="#4BB5F0" x="29.0721649" y="17.9381443" width="1.8556701" height="1.8556701"></rect>
                    <rect id="Rectangle" fill="#4BB5F0" x="32.7835052" y="17.9381443" width="1.8556701" height="1.8556701"></rect>
                </g>
            </g>
        </g>
    </g>
</svg>