<?xml version="1.0" encoding="UTF-8"?>
<svg width="52px" height="52px" viewBox="0 0 52 52" version="1.1" xmlns="http://www.w3.org/2000/svg" xmlns:xlink="http://www.w3.org/1999/xlink">
    <!-- Generator: Sketch 60.1 (88133) - https://sketch.com -->
    <title>icon2</title>
    <desc>Created with Sketch.</desc>
    <g id="Page-2" stroke="none" stroke-width="1" fill="none" fill-rule="evenodd">
        <g id="iPhone-11" transform="translate(-179.000000, -2221.000000)" fill-rule="nonzero">
            <g id="Group-2" transform="translate(30.000000, 1905.000000)">
                <g id="icon2" transform="translate(149.000000, 316.000000)">
                    <path d="M17.4600112,19.5463918 L9.5154639,19.5463918 C9.28622773,19.5463918 9.065642,19.6373196 8.9038791,19.8001237 L5.69716773,23.0103093 L5.03108531,23.0103093 C4.67295783,22.0049072 3.72141143,21.2783506 2.59512653,21.2783506 C1.16434677,21.2783506 0,22.4439588 0,23.8762887 C0,25.3086186 1.16434677,26.4742268 2.59512653,26.4742268 C3.72141143,26.4742268 4.67295783,25.7476701 5.03108531,24.742268 L6.05529524,24.742268 C6.28453141,24.742268 6.50511714,24.6513402 6.66688004,24.4885361 L9.87359136,21.2783506 L17.4600112,21.2783506 C17.8181387,22.2837526 18.7696851,23.0103093 19.89597,23.0103093 C20.553402,23.0103093 21.146821,22.7565773 21.6044283,22.352165 L25.1294751,24.3153402 C25.106119,24.4547629 25.086223,24.5959175 25.086223,24.742268 C25.086223,26.174598 26.2505698,27.3402062 27.6813496,27.3402062 C29.1121293,27.3402062 30.2764761,26.174598 30.2764761,24.742268 C30.2764761,24.5959175 30.2565801,24.4547629 30.233224,24.3153402 L33.7582708,22.352165 C34.2158782,22.7565773 34.8092971,23.0103093 35.4667292,23.0103093 C36.8975089,23.0103093 38.0618557,21.8447011 38.0618557,20.4123711 C38.0618557,19.284866 37.3360853,18.3322887 36.3317713,17.9737732 L36.3317713,14.1903093 C37.3360853,13.8317938 38.0618557,12.8792165 38.0618557,11.7517114 C38.0618557,10.3193814 36.8975089,9.15377323 35.4667292,9.15377323 C34.8092971,9.15377323 34.2158782,9.40750519 33.7582708,9.81191754 L30.233224,7.84874228 C30.2565801,7.7101856 30.2764761,7.56903097 30.2764761,7.4226804 C30.2764761,5.99035053 29.1121293,4.82474227 27.6813496,4.82474227 C26.2505698,4.82474227 25.086223,5.99035053 25.086223,7.4226804 C25.086223,7.56903097 25.106119,7.7101856 25.1294751,7.84960828 L21.6044283,9.81278353 C21.146821,9.40837113 20.553402,9.15463918 19.89597,9.15463918 C18.7696851,9.15463918 17.8181387,9.88119591 17.4600112,10.886598 L9.87359136,10.886598 L6.66688004,7.67641241 C6.50511714,7.51360825 6.28453141,7.4226804 6.05529524,7.4226804 L5.03108531,7.4226804 C4.67295783,6.41727836 3.72141143,5.69072168 2.59512653,5.69072168 C1.16434677,5.69072168 0,6.85632989 0,8.28865982 C0,9.72098969 1.16434677,10.886598 2.59512653,10.886598 C3.72141143,10.886598 4.67295783,10.1600413 5.03108531,9.15463918 L5.69716773,9.15463918 L8.9038791,12.3648248 C9.065642,12.5276289 9.28622773,12.6185567 9.5154639,12.6185567 L17.4600112,12.6185567 C17.721254,13.3520412 18.2982371,13.9296495 19.0309278,14.1911753 L19.0309278,15.2164949 L5.03108531,15.2164949 C4.67295783,14.2110928 3.72141143,13.4845361 2.59512653,13.4845361 C1.16434677,13.4845361 0,14.6501444 0,16.0824742 C0,17.5148042 1.16434677,18.6804124 2.59512653,18.6804124 C3.72141143,18.6804124 4.67295783,17.9538557 5.03108531,16.9484536 L19.0309278,16.9484536 L19.0309278,17.9737732 C18.2982371,18.235299 17.721254,18.8129072 17.4600112,19.5463918 Z M2.59512653,24.742268 C2.11848828,24.742268 1.73008435,24.3534433 1.73008435,23.8762887 C1.73008435,23.399134 2.11848828,23.0103093 2.59512653,23.0103093 C3.07176476,23.0103093 3.46016869,23.399134 3.46016869,23.8762887 C3.46016869,24.3534433 3.07176476,24.742268 2.59512653,24.742268 Z M2.59512653,9.15463918 C2.11848828,9.15463918 1.73008435,8.76581443 1.73008435,8.28865982 C1.73008435,7.81150516 2.11848828,7.4226804 2.59512653,7.4226804 C3.07176476,7.4226804 3.46016869,7.81150516 3.46016869,8.28865982 C3.46016869,8.76581443 3.07176476,9.15463918 2.59512653,9.15463918 Z M2.59512653,16.9484536 C2.11848828,16.9484536 1.73008435,16.5596289 1.73008435,16.0824742 C1.73008435,15.6053196 2.11848828,15.2164949 2.59512653,15.2164949 C3.07176476,15.2164949 3.46016869,15.6053196 3.46016869,16.0824742 C3.46016869,16.5596289 3.07176476,16.9484536 2.59512653,16.9484536 Z M19.89597,21.2783506 C19.4193318,21.2783506 19.0309278,20.8895258 19.0309278,20.4123711 C19.0309278,19.9352165 19.4193318,19.5463918 19.89597,19.5463918 C20.3726082,19.5463918 20.7610122,19.9352165 20.7610122,20.4123711 C20.7610122,20.8895258 20.3726082,21.2783506 19.89597,21.2783506 Z M21.6044283,13.6923711 L25.1294751,15.6555464 C25.106119,15.7949691 25.086223,15.9361237 25.086223,16.0824742 C25.086223,16.2288247 25.106119,16.3699794 25.1294751,16.5094021 L21.6044283,18.4725774 C21.3587563,18.2560825 21.0750225,18.0863505 20.7610122,17.9737732 L20.7610122,14.1903093 C21.0750225,14.078598 21.3596214,13.909732 21.6044283,13.6923711 Z M33.7582708,18.4725774 L30.233224,16.5094021 C30.2565801,16.3699794 30.2764761,16.2288247 30.2764761,16.0824742 C30.2764761,15.9361237 30.2565801,15.7949691 30.233224,15.6555464 L33.7582708,13.6923711 C34.0039428,13.908866 34.2876767,14.078598 34.6016869,14.1911753 L34.6016869,17.9746392 C34.2876767,18.0863505 34.0030778,18.2552165 33.7582708,18.4725774 Z M22.4478444,19.9854433 L25.9728913,18.0222681 C26.2185633,18.2387629 26.5022971,18.4084949 26.8163074,18.5210722 L26.8163074,22.3045361 C26.5022971,22.4171134 26.2176982,22.5859794 25.9728913,22.8033402 L22.4478444,20.840165 C22.4712006,20.6998763 22.4910965,20.5587216 22.4910965,20.4123711 C22.4910965,20.2660206 22.4712006,20.124866 22.4478444,19.9854433 Z M27.6813496,15.2164949 C28.1579878,15.2164949 28.5463918,15.6053196 28.5463918,16.0824742 C28.5463918,16.5596289 28.1579878,16.9484536 27.6813496,16.9484536 C27.2047114,16.9484536 26.8163074,16.5596289 26.8163074,16.0824742 C26.8163074,15.6053196 27.2047114,15.2164949 27.6813496,15.2164949 Z M28.5463918,18.5210722 C28.8604021,18.4084949 29.1450009,18.2396289 29.3898079,18.0222681 L32.9148547,19.9854433 C32.8914986,20.124866 32.8716026,20.2660206 32.8716026,20.4123711 C32.8716026,20.5587216 32.8914986,20.6998763 32.9148547,20.839299 L29.3898079,22.8024742 C29.1441359,22.5859794 28.8604021,22.4162475 28.5463918,22.3036701 L28.5463918,18.5210722 L28.5463918,18.5210722 Z M32.9148547,12.1795052 L29.3898079,14.1426804 C29.1441359,13.9261856 28.8604021,13.7564536 28.5463918,13.6438763 L28.5463918,9.86041238 C28.8604021,9.74783505 29.1450009,9.57896906 29.3898079,9.36160824 L32.9148547,11.3247835 C32.8914986,11.4650722 32.8716026,11.6062268 32.8716026,11.7525773 C32.8716026,11.8989278 32.8914986,12.0400825 32.9148547,12.1795052 Z M26.8163074,13.6438763 C26.5022971,13.7564536 26.2176982,13.9253196 25.9728913,14.1426804 L22.4478444,12.1795052 C22.4712006,12.0400825 22.4910965,11.8989278 22.4910965,11.7525773 C22.4910965,11.6062268 22.4712006,11.4650722 22.4478444,11.3256495 L25.9728913,9.36247424 C26.2185633,9.57896906 26.5022971,9.74870105 26.8163074,9.86127837 L26.8163074,13.6438763 Z M27.6813496,25.6082475 C27.2047114,25.6082475 26.8163074,25.2194227 26.8163074,24.742268 C26.8163074,24.2651134 27.2047114,23.8762887 27.6813496,23.8762887 C28.1579878,23.8762887 28.5463918,24.2651134 28.5463918,24.742268 C28.5463918,25.2194227 28.1579878,25.6082475 27.6813496,25.6082475 Z M35.4667292,21.2783506 C34.9900909,21.2783506 34.6016869,20.8895258 34.6016869,20.4123711 C34.6016869,19.9352165 34.9900909,19.5463918 35.4667292,19.5463918 C35.9433674,19.5463918 36.3317713,19.9352165 36.3317713,20.4123711 C36.3317713,20.8895258 35.9433674,21.2783506 35.4667292,21.2783506 Z M35.4667292,10.886598 C35.9433674,10.886598 36.3317713,11.2754227 36.3317713,11.7525773 C36.3317713,12.229732 35.9433674,12.6185567 35.4667292,12.6185567 C34.9900909,12.6185567 34.6016869,12.229732 34.6016869,11.7525773 C34.6016869,11.2754227 34.9900909,10.886598 35.4667292,10.886598 Z M27.6813496,6.55670104 C28.1579878,6.55670104 28.5463918,6.9455258 28.5463918,7.4226804 C28.5463918,7.89983506 28.1579878,8.28865982 27.6813496,8.28865982 C27.2047114,8.28865982 26.8163074,7.89983506 26.8163074,7.4226804 C26.8163074,6.9455258 27.2047114,6.55670104 27.6813496,6.55670104 Z M19.89597,10.886598 C20.3726082,10.886598 20.7610122,11.2754227 20.7610122,11.7525773 C20.7610122,12.229732 20.3726082,12.6185567 19.89597,12.6185567 C19.4193318,12.6185567 19.0309278,12.229732 19.0309278,11.7525773 C19.0309278,11.2754227 19.4193318,10.886598 19.89597,10.886598 Z" id="Shape" fill="#4BB5F0"></path>
                    <path d="M18.0423695,52 L31.9734741,52 C32.4540972,52 32.8441682,51.6117291 32.8441682,51.1333237 L32.8441682,45.0665879 L44.1631908,45.0665879 C44.6438139,45.0665879 45.0338848,44.6783168 45.0338848,44.1999114 L45.0338848,33.7997929 L51.1287432,33.7997929 C51.405624,33.7997929 51.6659612,33.6689248 51.8305227,33.4461889 C51.9950837,33.2234531 52.0429721,32.9374498 51.9602557,32.6739801 L47.6189754,18.8470227 C47.4448366,13.5880295 45.2141185,8.73464093 41.3203747,5.15786685 C37.3813549,1.54035901 32.2486135,-0.276195003 26.8790433,0.0340751962 C20.698857,0.393745958 14.9731729,3.76945106 11.5626644,9.06484469 L13.0289132,9.99998865 C16.139903,5.17000032 21.3553603,2.09156529 26.9817852,1.76396156 C31.8759564,1.47709163 36.5524541,3.13677719 40.1388429,6.43188137 C43.7374214,9.736519 45.7774575,14.2389036 45.8836822,19.108759 C45.8871649,19.2586941 45.9315703,19.3999623 46.00645,19.5221637 L49.9445992,32.0664399 L44.1631908,32.0664399 C43.6825676,32.0664399 43.2924967,32.4547109 43.2924967,32.9331164 L43.2924967,36.3998225 L40.6804146,36.3998225 C39.2402866,36.3998225 38.0683325,35.2332759 38.0683325,33.7997929 L36.3269444,33.7997929 C36.3269444,36.1892201 38.2799111,38.1331756 40.6804146,38.1331756 L43.2924967,38.1331756 L43.2924967,43.3332348 L31.9734741,43.3332348 C31.492851,43.3332348 31.1027801,43.7215059 31.1027801,44.1999114 L31.1027801,50.2666471 L18.9130635,50.2666471 L18.9130635,49.4285709 C18.9130635,42.416291 16.7955356,35.2462761 12.7886016,28.6933348 C11.9022351,27.2442516 11.2326714,25.6799005 10.7973243,24.0444819 L9.11340206,24.4882203 C9.59141308,26.2848407 10.3271495,28.0025936 11.3005855,29.5946784 C15.1412169,35.8763499 17.1716754,42.7343613 17.1716754,49.4285709 L17.1716754,51.1333237 C17.1716754,51.6117291 17.5617464,52 18.0423695,52 Z" id="Path" fill="#E95959"></path>
                </g>
            </g>
        </g>
    </g>
</svg>